# xmcd
#
# Track frame offsets:
#	150
#	16554
#	33617
#	47394
#	64469
#	81687
#	94377
#	108617
#	121936
#	139863
#	152485
#	169087
#	186382
#	204067
#	217359
#	230373
#	246044
#	262060
#	276345
#	289869
#
# Disc length: 4067 seconds
#
# Revision: 1
# Processed by: cddbd v1.5.2PL0 Copyright (c) Steve Scherf et al.
# Submitted via: audiograbber 1.82.02
#
DISCID=2f0fe114
DTITLE=Various Artist  - Country Radio - August 2017
DYEAR=2017
DGENRE=Country
TTITLE0=Shania Twain - Life's About To Get Good
TTITLE1=Little Big Town - When Someone Stops Loving You
TTITLE2=Beyond The Sun - Cruisin Round Town
TTITLE3=Andy Ross - Playing In The Mud
TTITLE4=Aaron Lewis - Folded Flag
TTITLE5=Gretchen Wilson - Summertime Town
TTITLE6=Justin Dukes - Warning Sign
TTITLE7=Cadillac Three - Dang If We Didn't (PO Clean Edit)
TTITLE8=Sara Evans - Marquee Sign
TTITLE9=Shane Owens - 19
TTITLE10=RaeLynn - Lonely Call
TTITLE11=Brook Chivell - Hot Country Girl
TTITLE12=Kelsea Ballerini - Legends
TTITLE13=Sam Outlaw - Trouble
TTITLE14=Risa Binder - You Haul
TTITLE15=Kason Layne - Text With You
TTITLE16=Stolen Rhodes - Preacherman
TTITLE17=Jeremy Michael - Talk
TTITLE18=Jordan Davis - Singles You Up
TTITLE19=Brantley Gilbert - Ones That Like Me, The
EXTD=
EXTT0=
EXTT1=
EXTT2=
EXTT3=
EXTT4=
EXTT5=
EXTT6=
EXTT7=
EXTT8=
EXTT9=
EXTT10=
EXTT11=
EXTT12=
EXTT13=
EXTT14=
EXTT15=
EXTT16=
EXTT17=
EXTT18=
EXTT19=
PLAYORDER=
